# xmcd CD database file
#
# Track frame offsets:
#	150
#	18450
#	36107
#	56625
#	73635
#	92520
#	111667
#	129350
#	148472
#	163895
#	181652
#
# Disc length: 2767 seconds
#
# Revision: 0
# Processed by: cddbd v1.5.2PL0 Copyright (c) Steve Scherf et al.
# Submitted via: CDex 1.70beta2
#
DISCID=9e0acd0b
DTITLE=Kurt Kunzat - Thunder Bay
DYEAR=1995
DGENRE=New Age
TTITLE0=Thunder Bay
TTITLE1=Embraced by Love
TTITLE2=Now I Wonder Where You Are
TTITLE3=Streaming Water Strider by the Stream
TTITLE4=Dream Drifting
TTITLE5=Nancy
TTITLE6=Sunrise Side
TTITLE7=Meditation in F
TTITLE8=South Awakening
TTITLE9=Blue Waters
TTITLE10=Going Home
EXTD=YEAR: 1995
EXTT0=
EXTT1=
EXTT2=
EXTT3=
EXTT4=
EXTT5=
EXTT6=
EXTT7=
EXTT8=
EXTT9=
EXTT10=
PLAYORDER=
